<mxfile host="app.diagrams.net" modified="2022-02-15T07:13:55.000Z" agent="5.0 (X11; Linux x86_64) AppleWebKit/537.36 (KHTML, like Gecko) Chrome/98.0.4758.80 Safari/537.36" etag="0Fpv6MdzaSapkakY9BxV" version="16.5.6" type="github">
  <diagram id="JCZBZ-tFnHPxDME2OROh" name="Page-1">
    <mxGraphModel dx="828" dy="456" grid="1" gridSize="10" guides="1" tooltips="1" connect="1" arrows="1" fold="1" page="1" pageScale="1" pageWidth="850" pageHeight="1100" math="0" shadow="0">
      <root>
        <mxCell id="0" />
        <mxCell id="1" parent="0" />
        <mxCell id="Z9GKDxYWFSQLW0Q6UE6H-1" value="" style="endArrow=none;html=1;rounded=0;" edge="1" parent="1">
          <mxGeometry width="50" height="50" relative="1" as="geometry">
            <mxPoint x="120" y="40" as="sourcePoint" />
            <mxPoint x="180" y="40" as="targetPoint" />
          </mxGeometry>
        </mxCell>
        <mxCell id="Z9GKDxYWFSQLW0Q6UE6H-3" value="" style="endArrow=none;html=1;rounded=0;" edge="1" parent="1">
          <mxGeometry width="50" height="50" relative="1" as="geometry">
            <mxPoint x="120" y="80" as="sourcePoint" />
            <mxPoint x="180" y="80" as="targetPoint" />
          </mxGeometry>
        </mxCell>
        <mxCell id="Z9GKDxYWFSQLW0Q6UE6H-6" value="" style="rounded=0;whiteSpace=wrap;html=1;" vertex="1" parent="1">
          <mxGeometry x="200" y="40" width="60" height="40" as="geometry" />
        </mxCell>
        <mxCell id="Z9GKDxYWFSQLW0Q6UE6H-22" value="Boundaries" style="edgeStyle=orthogonalEdgeStyle;rounded=0;orthogonalLoop=1;jettySize=auto;html=1;entryX=0.357;entryY=-0.1;entryDx=0;entryDy=0;entryPerimeter=0;exitX=0.333;exitY=0.967;exitDx=0;exitDy=0;exitPerimeter=0;" edge="1" parent="1" source="Z9GKDxYWFSQLW0Q6UE6H-8" target="Z9GKDxYWFSQLW0Q6UE6H-15">
          <mxGeometry x="0.3776" y="-10" relative="1" as="geometry">
            <mxPoint as="offset" />
          </mxGeometry>
        </mxCell>
        <mxCell id="Z9GKDxYWFSQLW0Q6UE6H-23" value="Key&lt;br&gt;Frames" style="edgeStyle=orthogonalEdgeStyle;rounded=0;orthogonalLoop=1;jettySize=auto;html=1;entryX=0.686;entryY=-0.1;entryDx=0;entryDy=0;entryPerimeter=0;" edge="1" parent="1" target="Z9GKDxYWFSQLW0Q6UE6H-15">
          <mxGeometry x="-0.3182" relative="1" as="geometry">
            <mxPoint x="263" y="360" as="sourcePoint" />
            <mxPoint as="offset" />
          </mxGeometry>
        </mxCell>
        <mxCell id="Z9GKDxYWFSQLW0Q6UE6H-8" value="Start Boundary Detection" style="ellipse;whiteSpace=wrap;html=1;aspect=fixed;" vertex="1" parent="1">
          <mxGeometry x="220" y="300" width="60" height="60" as="geometry" />
        </mxCell>
        <mxCell id="Z9GKDxYWFSQLW0Q6UE6H-9" value="" style="endArrow=none;html=1;rounded=0;" edge="1" parent="1">
          <mxGeometry width="50" height="50" relative="1" as="geometry">
            <mxPoint x="120" y="240" as="sourcePoint" />
            <mxPoint x="170" y="240" as="targetPoint" />
          </mxGeometry>
        </mxCell>
        <mxCell id="Z9GKDxYWFSQLW0Q6UE6H-10" value="" style="endArrow=none;html=1;rounded=0;" edge="1" parent="1">
          <mxGeometry width="50" height="50" relative="1" as="geometry">
            <mxPoint x="120" y="259" as="sourcePoint" />
            <mxPoint x="170" y="259" as="targetPoint" />
          </mxGeometry>
        </mxCell>
        <mxCell id="Z9GKDxYWFSQLW0Q6UE6H-20" value="Video" style="edgeStyle=orthogonalEdgeStyle;rounded=0;orthogonalLoop=1;jettySize=auto;html=1;entryX=0.033;entryY=0.35;entryDx=0;entryDy=0;entryPerimeter=0;" edge="1" parent="1" source="Z9GKDxYWFSQLW0Q6UE6H-11" target="Z9GKDxYWFSQLW0Q6UE6H-8">
          <mxGeometry x="0.1547" relative="1" as="geometry">
            <Array as="points">
              <mxPoint x="160" y="321" />
            </Array>
            <mxPoint as="offset" />
          </mxGeometry>
        </mxCell>
        <mxCell id="Z9GKDxYWFSQLW0Q6UE6H-21" style="edgeStyle=orthogonalEdgeStyle;rounded=0;orthogonalLoop=1;jettySize=auto;html=1;entryX=0;entryY=0.5;entryDx=0;entryDy=0;" edge="1" parent="1" source="Z9GKDxYWFSQLW0Q6UE6H-11" target="Z9GKDxYWFSQLW0Q6UE6H-17">
          <mxGeometry relative="1" as="geometry">
            <Array as="points">
              <mxPoint x="130" y="520" />
            </Array>
          </mxGeometry>
        </mxCell>
        <mxCell id="Z9GKDxYWFSQLW0Q6UE6H-30" value="Video" style="edgeLabel;html=1;align=center;verticalAlign=middle;resizable=0;points=[];" vertex="1" connectable="0" parent="Z9GKDxYWFSQLW0Q6UE6H-21">
          <mxGeometry x="0.2772" y="-4" relative="1" as="geometry">
            <mxPoint x="-4" y="-4" as="offset" />
          </mxGeometry>
        </mxCell>
        <mxCell id="Z9GKDxYWFSQLW0Q6UE6H-11" value="Video" style="text;html=1;align=center;verticalAlign=middle;resizable=0;points=[];autosize=1;strokeColor=none;fillColor=none;" vertex="1" parent="1">
          <mxGeometry x="120" y="240" width="50" height="20" as="geometry" />
        </mxCell>
        <mxCell id="Z9GKDxYWFSQLW0Q6UE6H-12" value="" style="ellipse;whiteSpace=wrap;html=1;aspect=fixed;" vertex="1" parent="1">
          <mxGeometry x="40" y="20" width="60" height="60" as="geometry" />
        </mxCell>
        <mxCell id="Z9GKDxYWFSQLW0Q6UE6H-13" value="" style="endArrow=none;html=1;rounded=0;" edge="1" parent="1">
          <mxGeometry width="50" height="50" relative="1" as="geometry">
            <mxPoint x="225" y="450" as="sourcePoint" />
            <mxPoint x="275" y="450" as="targetPoint" />
          </mxGeometry>
        </mxCell>
        <mxCell id="Z9GKDxYWFSQLW0Q6UE6H-14" value="" style="endArrow=none;html=1;rounded=0;" edge="1" parent="1">
          <mxGeometry width="50" height="50" relative="1" as="geometry">
            <mxPoint x="225" y="469" as="sourcePoint" />
            <mxPoint x="275" y="469" as="targetPoint" />
          </mxGeometry>
        </mxCell>
        <mxCell id="Z9GKDxYWFSQLW0Q6UE6H-24" value="Boundaries" style="edgeStyle=orthogonalEdgeStyle;rounded=0;orthogonalLoop=1;jettySize=auto;html=1;entryX=0.283;entryY=0.983;entryDx=0;entryDy=0;entryPerimeter=0;exitX=0.986;exitY=0.15;exitDx=0;exitDy=0;exitPerimeter=0;" edge="1" parent="1" source="Z9GKDxYWFSQLW0Q6UE6H-15" target="Z9GKDxYWFSQLW0Q6UE6H-16">
          <mxGeometry x="-0.1595" relative="1" as="geometry">
            <mxPoint as="offset" />
          </mxGeometry>
        </mxCell>
        <mxCell id="Z9GKDxYWFSQLW0Q6UE6H-25" value="Key Frames" style="edgeStyle=orthogonalEdgeStyle;rounded=0;orthogonalLoop=1;jettySize=auto;html=1;entryX=0.667;entryY=1.05;entryDx=0;entryDy=0;entryPerimeter=0;" edge="1" parent="1" source="Z9GKDxYWFSQLW0Q6UE6H-15" target="Z9GKDxYWFSQLW0Q6UE6H-16">
          <mxGeometry relative="1" as="geometry">
            <Array as="points">
              <mxPoint x="400" y="470" />
            </Array>
          </mxGeometry>
        </mxCell>
        <mxCell id="Z9GKDxYWFSQLW0Q6UE6H-15" value="Annotation" style="text;html=1;align=center;verticalAlign=middle;resizable=0;points=[];autosize=1;strokeColor=none;fillColor=none;" vertex="1" parent="1">
          <mxGeometry x="215" y="450" width="70" height="20" as="geometry" />
        </mxCell>
        <mxCell id="Z9GKDxYWFSQLW0Q6UE6H-27" value="Storyboard" style="edgeStyle=orthogonalEdgeStyle;rounded=0;orthogonalLoop=1;jettySize=auto;html=1;entryX=0.75;entryY=1;entryDx=0;entryDy=0;exitX=0.75;exitY=0.033;exitDx=0;exitDy=0;exitPerimeter=0;" edge="1" parent="1" source="Z9GKDxYWFSQLW0Q6UE6H-16" target="Z9GKDxYWFSQLW0Q6UE6H-19">
          <mxGeometry x="0.3477" y="-5" relative="1" as="geometry">
            <mxPoint as="offset" />
          </mxGeometry>
        </mxCell>
        <mxCell id="Z9GKDxYWFSQLW0Q6UE6H-16" value="Storyboard Preview" style="ellipse;whiteSpace=wrap;html=1;aspect=fixed;" vertex="1" parent="1">
          <mxGeometry x="360" y="330" width="60" height="60" as="geometry" />
        </mxCell>
        <mxCell id="Z9GKDxYWFSQLW0Q6UE6H-29" value="Shot" style="edgeStyle=orthogonalEdgeStyle;rounded=0;orthogonalLoop=1;jettySize=auto;html=1;entryX=1;entryY=0.25;entryDx=0;entryDy=0;exitX=0.7;exitY=0.033;exitDx=0;exitDy=0;exitPerimeter=0;" edge="1" parent="1" source="Z9GKDxYWFSQLW0Q6UE6H-17" target="Z9GKDxYWFSQLW0Q6UE6H-19">
          <mxGeometry x="0.0898" relative="1" as="geometry">
            <Array as="points">
              <mxPoint x="482" y="210" />
            </Array>
            <mxPoint as="offset" />
          </mxGeometry>
        </mxCell>
        <mxCell id="Z9GKDxYWFSQLW0Q6UE6H-17" value="Shot Preview" style="ellipse;whiteSpace=wrap;html=1;aspect=fixed;" vertex="1" parent="1">
          <mxGeometry x="440" y="490" width="60" height="60" as="geometry" />
        </mxCell>
        <mxCell id="Z9GKDxYWFSQLW0Q6UE6H-18" value="" style="curved=1;endArrow=classic;html=1;rounded=0;" edge="1" parent="1">
          <mxGeometry width="50" height="50" relative="1" as="geometry">
            <mxPoint x="280" y="80" as="sourcePoint" />
            <mxPoint x="340" y="40" as="targetPoint" />
            <Array as="points">
              <mxPoint x="300" y="50" />
            </Array>
          </mxGeometry>
        </mxCell>
        <mxCell id="Z9GKDxYWFSQLW0Q6UE6H-26" value="Browse&lt;br&gt;Request" style="edgeStyle=orthogonalEdgeStyle;rounded=0;orthogonalLoop=1;jettySize=auto;html=1;exitX=0.25;exitY=1;exitDx=0;exitDy=0;entryX=0.25;entryY=0.05;entryDx=0;entryDy=0;entryPerimeter=0;" edge="1" parent="1" source="Z9GKDxYWFSQLW0Q6UE6H-19" target="Z9GKDxYWFSQLW0Q6UE6H-16">
          <mxGeometry x="0.2903" relative="1" as="geometry">
            <mxPoint as="offset" />
          </mxGeometry>
        </mxCell>
        <mxCell id="Z9GKDxYWFSQLW0Q6UE6H-28" value="Shot&lt;br&gt;Preview&lt;br&gt;Request" style="edgeStyle=orthogonalEdgeStyle;rounded=0;orthogonalLoop=1;jettySize=auto;html=1;entryX=0.3;entryY=0.067;entryDx=0;entryDy=0;entryPerimeter=0;exitX=1;exitY=0.75;exitDx=0;exitDy=0;" edge="1" parent="1" source="Z9GKDxYWFSQLW0Q6UE6H-19" target="Z9GKDxYWFSQLW0Q6UE6H-17">
          <mxGeometry relative="1" as="geometry" />
        </mxCell>
        <mxCell id="Z9GKDxYWFSQLW0Q6UE6H-19" value="User" style="rounded=0;whiteSpace=wrap;html=1;" vertex="1" parent="1">
          <mxGeometry x="360" y="200" width="60" height="40" as="geometry" />
        </mxCell>
      </root>
    </mxGraphModel>
  </diagram>
</mxfile>
